<?xml version="1.0" standalone="no"?>
<!DOCTYPE svg PUBLIC "-//W3C//DTD SVG 20010904//EN"
 "http://www.w3.org/TR/2001/REC-SVG-20010904/DTD/svg10.dtd">
<svg version="1.0" xmlns="http://www.w3.org/2000/svg"
 width="1920.000000pt" height="1080.000000pt" viewBox="0 0 1920.000000 1080.000000"
 preserveAspectRatio="xMidYMid meet">

<g transform="translate(0.000000,1080.000000) scale(0.100000,-0.100000)"
fill="#000000" stroke="none">
<path d="M0 5400 l0 -5400 9600 0 9600 0 0 5400 0 5400 -9600 0 -9600 0 0
-5400z m9911 3180 c33 0 -26 -71 -101 -120 -47 -31 -110 -91 -110 -105 0 -6
39 -21 88 -34 231 -60 492 -175 668 -292 253 -170 379 -355 378 -554 -2 -295
-183 -564 -480 -713 -171 -86 -483 -166 -714 -184 -32 -3 -28 -6 50 -35 150
-55 251 -102 385 -178 227 -129 347 -242 430 -407 24 -47 49 -113 56 -145 7
-32 13 -59 15 -61 1 -2 45 10 98 27 193 62 380 91 586 91 305 0 604 -88 938
-275 58 -33 83 -42 87 -33 2 7 18 63 36 123 42 149 39 145 105 145 35 0 56 -5
59 -12 2 -7 11 -204 19 -438 9 -234 18 -462 21 -507 l6 -83 -84 0 -85 0 -27
88 c-74 239 -225 449 -414 576 -243 162 -533 217 -851 160 -236 -43 -489 -199
-570 -352 -42 -80 -84 -141 -144 -211 -75 -89 -153 -331 -193 -596 -22 -151
-25 -601 -5 -740 58 -402 174 -668 379 -866 133 -130 262 -199 463 -250 124
-31 412 -38 547 -14 226 41 393 125 543 275 127 127 221 287 295 505 l41 120
90 0 89 0 3 -557 2 -558 -79 0 -80 0 -20 68 c-68 230 -82 276 -84 278 -1 1
-29 -18 -62 -43 -287 -216 -580 -320 -985 -348 -113 -8 -371 11 -495 36 -407
84 -740 295 -963 609 -105 148 -214 403 -257 599 -58 266 -60 648 -6 917 9 46
14 84 11 84 -3 0 -44 -11 -90 -24 -266 -77 -577 -103 -840 -71 -461 57 -914
169 -1256 310 l-82 34 -98 -65 c-392 -260 -839 -353 -1285 -268 -274 52 -458
208 -499 423 -21 113 -6 192 57 287 69 106 178 188 308 232 75 25 91 26 255
26 150 0 188 -3 265 -23 112 -29 279 -96 410 -165 55 -29 187 -99 292 -155
l193 -102 57 62 c248 267 472 622 823 1309 400 780 654 1168 1091 1665 l202
230 -79 13 c-299 47 -714 69 -990 53 -318 -19 -638 -68 -949 -146 -443 -111
-756 -282 -1026 -562 -257 -267 -369 -529 -326 -768 20 -109 50 -169 122 -241
67 -68 124 -100 235 -136 64 -20 95 -23 215 -22 124 0 149 3 221 27 122 40
223 117 325 244 66 82 115 178 130 253 12 65 33 86 69 75 51 -16 50 -95 -3
-235 -40 -104 -89 -180 -166 -255 -108 -105 -202 -161 -351 -211 -75 -25 -99
-28 -210 -28 -165 0 -293 27 -415 88 -218 108 -332 243 -386 457 -18 70 -21
103 -17 209 7 184 56 320 179 500 153 224 397 430 679 574 389 200 854 295
1586 326 405 17 742 -6 1131 -76 l143 -26 62 47 c34 25 82 58 107 73 57 33
192 82 209 76 8 -2 18 -4 23 -4z"/>
<path d="M9542 8088 c-172 -256 -411 -647 -790 -1293 -438 -748 -676 -1121
-915 -1441 -127 -169 -195 -246 -309 -354 -49 -45 -88 -85 -88 -89 0 -10 296
-116 436 -155 290 -83 642 -142 904 -153 298 -13 601 59 826 195 l78 47 61
120 c94 186 172 292 325 445 l135 135 0 115 c-1 215 -76 369 -244 503 -120 95
-273 162 -662 290 -353 116 -410 139 -443 176 -18 20 -19 23 -3 55 26 56 56
60 317 50 124 -5 297 -9 385 -9 150 0 165 2 240 28 101 36 214 92 296 148 83
56 230 198 284 274 48 66 108 184 120 230 32 137 24 230 -31 344 -91 186 -337
340 -699 436 -55 14 -107 28 -116 31 -13 3 -41 -31 -107 -128z"/>
<path d="M5999 5300 c-94 -17 -176 -78 -234 -175 -27 -45 -30 -58 -30 -135 0
-71 4 -94 26 -141 72 -152 202 -225 426 -236 282 -15 563 66 832 240 l94 61
-114 54 c-226 107 -476 220 -566 256 -169 67 -329 95 -434 76z"/>
</g>
</svg>
